<mxfile host="app.diagrams.net" modified="2024-01-30T21:03:04.146Z" agent="Mozilla/5.0 (Macintosh; Intel Mac OS X 10_15_7) AppleWebKit/537.36 (KHTML, like Gecko) Chrome/120.0.0.0 Safari/537.36" etag="EZGGTb-WF3RDhu6ARDuK" version="23.0.2" type="github">
  <diagram name="Labs" id="d2KiAx9O_kRmnixwuyJP">
    <mxGraphModel dx="1314" dy="831" grid="0" gridSize="10" guides="1" tooltips="1" connect="1" arrows="1" fold="1" page="1" pageScale="1" pageWidth="1000" pageHeight="500" math="0" shadow="0">
      <root>
        <mxCell id="0" />
        <mxCell id="1" parent="0" />
        <mxCell id="bVASFtPOgcxSvp45b3UM-1" value="&lt;font color=&quot;#ff5959&quot; style=&quot;font-size: 30px;&quot;&gt;این صفحه رو ادیت نزنین. صفحه جدید اضافه کنین&lt;/font&gt;" style="text;html=1;strokeColor=none;fillColor=none;align=center;verticalAlign=middle;whiteSpace=wrap;rounded=0;" vertex="1" parent="1">
          <mxGeometry x="146" y="186" width="709" height="128" as="geometry" />
        </mxCell>
      </root>
    </mxGraphModel>
  </diagram>
</mxfile>
